# AST/ASF file generated using VICON BodyLanguage
# -----------------------------------------------
:version 1.10
:name VICON
:units
  mass 1.0
  length 0.45
  angle deg
:documentation
   .ast/.asf automatically generated from VICON data using
   VICON BodyBuilder and BodyLanguage model FoxedUp or BRILLIANT.MOD
:root
   order TX TY TZ RX RY RZ
   axis XYZ
   position 0 0 0  
   orientation 0 0 0 
:bonedata
  begin
     id 1 
     name lhipjoint
     direction 0.578396 -0.714046 0.394458 
     length 2.21935 
     axis 0 0 0  XYZ
  end
  begin
     id 2 
     name lfemur
     direction 0.34202 -0.939693 0  
     length 6.39105  
     axis 0 0 20  XYZ
    dof rx ry rz
    limits (-160.0 20.0)
           (-70.0 70.0)
           (-60.0 70.0)
  end
  begin
     id 3 
     name ltibia
     direction 0.34202 -0.939693 0   
     length 6.99037   
     axis 0 0 20   XYZ
    dof rx
    limits (-10.0 170.0)
  end
  begin
     id 4 
     name lfoot
     direction 0.0582372 -0.160005 0.985397   
     length 2.06111   
     axis -90 7.62852e-016 20   XYZ
    dof rx rz
    limits (-45.0 90.0)
           (-70.0 20.0)
  end
  begin
     id 5 
     name ltoes
     direction 1.53556e-011 -4.21875e-011 1   
     length 1.04074   
     axis -90 7.62852e-016 20   XYZ
    dof rx
    limits (-90.0 20.0)
  end
  begin
     id 6 
     name rhipjoint
     direction -0.558179 -0.726269 0.40121   
     length 2.182  
     axis 0 0 0  XYZ 
  end
  begin
     id 7 
     name rfemur
     direction -0.34202 -0.939693 0   
     length 6.51172   
     axis 0 0 -20   XYZ
    dof rx ry rz
    limits (-160.0 20.0)
           (-70.0 70.0)
           (-70.0 60.0)
  end
  begin
     id 8 
     name rtibia
     direction -0.34202 -0.939693 0   
     length 7.02607   
     axis 0 0 -20   XYZ
    dof rx
    limits (-10.0 170.0)
 end
 begin
     id 9 
     name rfoot
     direction -0.0788856 -0.216737 0.973038   
     length 1.96734  
     axis -90 -7.62852e-016 -20   XYZ
    dof rx rz
    limits (-45.0 90.0)
           (-20.0 70.0)
  end
  begin
     id 10 
     name rtoes
     direction -1.53567e-011 -4.21783e-011 1   
     length 0.990825   
     axis -90 -7.62852e-016 -20   XYZ
    dof rx
    limits (-90.0 20.0)
  end
  begin
     id 11 
     name lowerback
     direction 0.00668177 0.999323 -0.0361741   
     length 1.7655   
     axis 0 0 0   XYZ
    dof rx ry rz
    limits (-20.0 45.0)
           (-30.0 30.0)
           (-30.0 30.0)
  end
  begin
     id 12 
     name upperback
     direction -0.00222086 0.99851 0.0545167   
     length 1.74912   
     axis 0 0 0   XYZ
    dof rx ry rz
    limits (-20.0 45.0)
           (-30.0 30.0)
           (-30.0 30.0)
  end
  begin
     id 13 
     name thorax
     direction -0.00733971 0.997496 0.0703443   
     length 1.75715   
     axis 0 0 0   XYZ
    dof rx ry rz
    limits (-20.0 45.0)
           (-30.0 30.0)
           (-30.0 30.0)
  end
  begin
     id 14 
     name lowerneck
     direction 0.0279797 0.994795 0.0979765   
     length 1.46939   
     axis 0 0 0   XYZ
    dof rx ry rz
    limits (-20.0 45.0)
           (-30.0 30.0)
           (-30.0 30.0)
  end
  begin
     id 15 
     name upperneck
     direction 0.00339187 0.976776 -0.214238   
     length 1.48018   
     axis 0 0 0   XYZ
    dof rx ry rz
    limits (-20.0 45.0)
           (-30.0 30.0)
           (-30.0 30.0)
  end
  begin
     id 16
     name head
     direction -0.00263506 0.996603 -0.0823096  
     length 1.4976  
     axis 0 0 0   XYZ
    dof rx ry rz
    limits (-20.0 45.0)
           (-30.0 30.0)
           (-30.0 30.0)
  end
  begin
     id 17 
     name lclavicle
     direction 0.894044 0.44508 -0.0508781  
     length 3.03024  
     axis 0 0 0   XYZ
    dof ry rz
    limits (-20.0 10.0)
           (0.0 20.0)
  end
  begin
     id 18 
     name lhumerus
     direction 1 -4.48961e-011 -2.39475e-018   
     length 4.4661   
     axis 180 -30 -90   XYZ
    dof rx ry rz
    limits (-60.0 90.0)
           (-90.0 90.0)
           (-90.0 90.0)
  end
  begin
     id 19
     name lradius
     direction 1 -4.48961e-011 9.29328e-028   
     length 3.41414   
     axis 180 -30 -90   XYZ
    dof rx
    limits (-10.0 170.0)
  end
  begin
     id 20
     name lwrist
     direction 1 -4.48985e-011 1.53461e-026   
     length 1.70707   
     axis -1.09697e-014 90 90   XYZ
    dof ry
    limits (-180.0 0.0)
 end
  begin
     id 21 
     name lhand
     direction 1 -4.48966e-011 3.06923e-026   
     length 0.328298   
     axis -1.95843e-014 90 90   XYZ
    dof rx rz
    limits (-90.0 90.0)
           (-45.0 45.0)
  end
  begin
     id 22 
     name lfingers
     direction 1 -4.48893e-011 6.13845e-026   
     length 0.264682   
     axis -3.91686e-014 90 90   XYZ
    dof rx
    limits (0.0 90.0)
  end
  begin
     id 23
     name lthumb
     direction 0.707107 -6.34876e-011 0.707107   
     length 0.380032   
     axis -90 45 2.85299e-015   XYZ
    dof rx rz
    limits (-45.0 45.0)
           (-45.0 45.0)
  end
  begin
     id 24 
     name rclavicle
     direction -0.936955 0.347862 -0.0332887   
     length 3.26927  
     axis 0 0 0   XYZ 
    dof ry rz
    limits (-10.0 20.0)
           (-20.0 0.0)
  end
  begin
     id 25 
     name rhumerus
     direction -1 -4.4896e-011 1.78637e-018  
     length 4.40431   
     axis 180 30 90   XYZ
    dof rx ry rz
    limits (-90.0 60.0)
           (-90.0 90.0)
           (-90.0 90.0)
  end
  begin
     id 26 
     name rradius
     direction -1 -4.48955e-011 9.34036e-027   
     length 3.04688   
     axis 180 30 90   XYZ
    dof rx
    limits (-10.0 170.0)
  end
  begin
     id 27 
     name rwrist
     direction -1 -4.49011e-011 1.53461e-026   
     length 1.52344   
     axis -1.09697e-014 -90 -90   XYZ
    dof ry
    limits (-180.0 0.0)
  end
  begin
     id 28
     name rhand
     direction -1 -4.48834e-011 3.06923e-026   
     length 0.500489   
     axis -1.95843e-014 -90 -90   XYZ
    dof rx rz
    limits (-90.0 90.0)
           (-45.0 45.0)
  end
  begin
     id 29
     name rfingers
     direction -1 -4.48967e-011 6.13845e-026   
     length 0.403507   
     axis -3.91686e-014 -90 -90   XYZ
    dof rx
    limits (0.0 90.0)
  end
  begin
     id 30
     name rthumb
     direction -0.707107 -6.34826e-011 0.707107   
     length 0.579358   
     axis -90 -45 -2.85299e-015   XYZ
    dof rx rz
    limits (-45.0 45.0)
           (-45.0 45.0)
  end
:hierarchy
  begin
    root lhipjoint rhipjoint lowerback
    lhipjoint lfemur
    lfemur ltibia
    ltibia lfoot
    lfoot ltoes
    rhipjoint rfemur
    rfemur rtibia
    rtibia rfoot
    rfoot rtoes
    lowerback upperback
    upperback thorax
    thorax lowerneck lclavicle rclavicle
    lowerneck upperneck
    upperneck head
    lclavicle lhumerus
    lhumerus lradius
    lradius lwrist
    lwrist lhand lthumb
    lhand lfingers
    rclavicle rhumerus
    rhumerus rradius
    rradius rwrist
    rwrist rhand rthumb
    rhand rfingers
  end

#!OML:ASF H:\IndianDance\Patient Classification 1\Patient 1\Session 1\dancer.ASF
:FULLY-SPECIFIED
:DEGREES
2110
root -20.1858 14.0862 3.49587 -176.541 7.99964 -175.97
lowerback 7.6438 5.21413 1.40727
upperback -6.5079 7.78771 2.11646
thorax -11.417 3.86737 0.116592
lowerneck -9.89753 13.4732 10.1406
upperneck 8.69675 16.1081 3.11218
head 4.75116 8.36839 0.615483
rclavicle -6.45056e-014 -2.98177e-014
rhumerus 17.5629 27.5419 -0.221379
rradius 94.3014
rwrist -4.28478
rhand -37.7396 36.0704
rfingers 7.12502
rthumb -10.7881 6.36744
lclavicle -6.45056e-014 -2.98177e-014
lhumerus 25.3802 -21.1299 -12.6406
lradius 110.502
lwrist 10.4177
lhand -28.2598 -6.33324
lfingers 7.12502
lthumb -1.63678 383.64
rfemur -51.2783 -31.4421 13.1605
rtibia 78.5545
rfoot 10.4964 20.8239
rtoes 14.91
lfemur -28.2827 32.8048 -10.9712
ltibia 62.6542
lfoot -23.616 15.1131
ltoes 1.01761
2111
root -20.1182 14.1231 3.49378 -176.683 7.89875 -176.08
lowerback 7.71357 5.17157 1.19128
upperback -6.53057 7.70796 2.13167
thorax -11.5158 3.84472 0.254847
lowerneck -9.73283 13.4455 10.1539
upperneck 8.27781 16.1329 2.89952
head 4.61157 8.35826 0.523447
rclavicle -4.29872e-015 -3.51849e-014
rhumerus 19.5134 25.2058 0.72125
rradius 94.4695
rwrist -5.24759
rhand -38.9964 37.1285
rfingers 7.12502
rthumb -12.0002 7.49254
lclavicle -4.29872e-015 -3.51849e-014
lhumerus 26.4335 -17.6248 -13.0009
lradius 112.183
lwrist 11.8139
lhand -29.2688 -6.50871
lfingers 7.12502
lthumb -2.61131 383.455
rfemur -51.1717 -31.406 12.5077
rtibia 79.3881
rfoot 10.4669 20.0217
rtoes 14.2537
lfemur -27.703 32.7819 -10.6605
ltibia 61.8972
lfoot -22.9992 14.9046
ltoes 0.562056
2112
root -20.05 14.1633 3.49057 -176.752 7.69114 -176.247
lowerback 7.7351 5.09054 0.979923
upperback -6.59531 7.57266 2.0869
thorax -11.6219 3.79342 0.339501
lowerneck -9.54218 13.4374 10.0926
upperneck 7.8099 16.1797 2.82374
head 4.43629 8.36179 0.478104
rclavicle -6.28408e-014 -1.07344e-014
rhumerus 21.387 22.829 1.56259
rradius 94.2232
rwrist -6.33174
rhand -39.8502 38.602
rfingers 7.12502
rthumb -12.8233 9.01585
lclavicle -6.28408e-014 -1.07344e-014
lhumerus 27.8303 -14.3442 -12.8389
lradius 112.752
lwrist 12.5741
lhand -29.9929 -6.02329
lfingers 7.12502
lthumb -3.31061 383.931
rfemur -51.1018 -31.5141 11.8456
rtibia 80.1875
rfoot 10.1307 18.9021
rtoes 13.0337
lfemur -27.2205 32.638 -10.5029
ltibia 61.0438
lfoot -22.281 14.8165
ltoes -0.058771
2113
root -19.9735 14.2118 3.4852 -176.793 7.5038 -176.364
lowerback 7.77841 5.08121 0.732361
upperback -6.6726 7.52647 2.00961
thorax -11.7568 3.78544 0.390629
lowerneck -9.64751 13.3897 10.0625
upperneck 7.45899 16.11 2.85047
head 4.33578 8.31567 0.474512
rclavicle -6.47541e-014 -2.08724e-014
rhumerus 22.5789 20.3665 2.22991
rradius 93.9773
rwrist -7.47385
rhand -40.6865 39.1268
rfingers 7.12502
rthumb -13.6295 9.59302
lclavicle -6.47541e-014 -2.08724e-014
lhumerus 30.1465 -12.2459 -11.8594
lradius 111.384
lwrist 12.7542
lhand -30.8347 -7.10444
lfingers 7.12502
lthumb -4.12352 382.835
rfemur -50.9586 -31.5226 11.2876
rtibia 80.8831
rfoot 9.7408 17.2334
rtoes 12.0183
lfemur -26.6803 32.5078 -10.2555
ltibia 60.083
lfoot -21.5065 14.667
ltoes -0.675688
2114
root -19.8962 14.2663 3.47851 -176.792 7.24287 -176.543
lowerback 7.7932 5.07404 0.465144
upperback -6.77646 7.47909 1.89642
thorax -11.9021 3.778 0.41553
lowerneck -9.70897 13.3211 10.0615
upperneck 7.06528 16.0231 2.80857
head 4.22253 8.25698 0.441196
rclavicle 1.717e-014 -6.95746e-015
rhumerus 23.5837 17.8985 2.97028
rradius 93.5845
rwrist -8.67604
rhand -41.3552 41.4553
rfingers 7.12502
rthumb -14.2739 11.9658
lclavicle 1.717e-014 -6.95746e-015
lhumerus 32.2298 -9.50692 -10.9733
lradius 110.664
lwrist 14.9994
lhand -30.6553 -6.52441
lfingers 7.12502
lthumb -3.95025 383.419
rfemur -50.7362 -31.559 10.6808
rtibia 81.4301
rfoot 9.54542 15.2188
rtoes 11.2295
lfemur -26.1783 32.2604 -10.1261
ltibia 59.0254
lfoot -20.7354 14.5157
ltoes -1.03612
2115
root -19.8126 14.3263 3.46972 -176.721 6.95576 -176.691
lowerback 7.75319 4.9869 0.283303
upperback -6.92695 7.33592 1.74568
thorax -12.0481 3.71867 0.373939
lowerneck -9.66395 13.3068 10.0559
upperneck 6.66545 16.0114 2.86093
head 4.0849 8.23823 0.434366
rclavicle -4.51987e-014 -1.76918e-014
rhumerus 24.4381 15.527 3.63672
rradius 93.1033
rwrist -9.26211
rhand -42.0054 42.1417
rfingers 7.12502
rthumb -14.9004 12.6976
lclavicle -4.51987e-014 -1.76918e-014
lhumerus 33.8261 -6.8335 -10.815
lradius 109.427
lwrist 16.1264
lhand -31.9628 -7.02316
lfingers 7.12502
lthumb -5.21281 382.893
rfemur -50.4751 -31.528 10.1773
rtibia 81.7909
rfoot 9.69163 12.7229
rtoes 11.5749
lfemur -25.71 32.0053 -9.98013
ltibia 57.8679
lfoot -19.8104 14.3897
ltoes -1.74052
